# xmcd CD database file
#
# Track frame offsets:
#	150
#	12529
#	28701
#	39882
#	56697
#	73505
#	88211
#	114614
#	129277
#	143522
#	163137
#
# Disc length: 2441 seconds
#
# Revision: 1
# Processed by: cddbd v1.5.2PL0 Copyright (c) Steve Scherf et al.
# Submitted via: CDex 1.51
#
DISCID=9109870b
DTITLE=Tracy Nelson - Victim of the Blues
DYEAR=2011
DGENRE=Blues
TTITLE0=You Be Mine
TTITLE1=Lead A Horse To Water
TTITLE2=Shoot Him
TTITLE3=It's A Sin
TTITLE4=Victim Of The Blues
TTITLE5=Howlin' For My Baby
TTITLE6=One More Mile
TTITLE7=Stranger In My Own Hometown
TTITLE8=The Love You Save
TTITLE9=Feel So Bad
TTITLE10=Without Love
EXTD=YEAR: 2011
EXTT0=
EXTT1=
EXTT2=
EXTT3=
EXTT4=
EXTT5=
EXTT6=
EXTT7=
EXTT8=
EXTT9=
EXTT10=
PLAYORDER=
